# xmcd
#
# Track frame offsets: 
#        150
#        18894
#        38379
#        71733
#        92975
#        113864
#        137233
#        164433
#        188345
#        207983
#        225299
#        239311
#
# Disc length: 3512 seconds
#
# Revision: 0
# Processed by: cddbd v1.5.2PL0 Copyright (c) Steve Scherf et al.
# Submitted via: ExactAudioCopy v1.3
#
DISCID=940db60c
DTITLE=David Vest - East Meets Vest
DYEAR=2012
DGENRE=Blues
TTITLE0=Low Down Dog
TTITLE1=Cry Hard Luck
TTITLE2=Come Clean With Me
TTITLE3=Shake What You Got
TTITLE4=Black Dress
TTITLE5=Piney Brown Blues
TTITLE6=The Whole St. Loius Blues
TTITLE7=Mighty Handy
TTITLE8=Wish Me Well
TTITLE9=Memphis Blues
TTITLE10=Boogie Woogie Baby
TTITLE11=After Hours
EXTD=
EXTT0=
EXTT1=
EXTT2=
EXTT3=
EXTT4=
EXTT5=
EXTT6=
EXTT7=
EXTT8=
EXTT9=
EXTT10=
EXTT11=
PLAYORDER=
